<?xml version="1.0" encoding="UTF-8" standalone="no"?>
<!-- Created with Inkscape (http://www.inkscape.org/) -->

<svg
   width="354.4895mm"
   height="69.033806mm"
   viewBox="0 0 354.4895 69.033806"
   version="1.1"
   id="svg1"
   inkscape:version="1.3.2 (091e20e, 2023-11-25, custom)"
   sodipodi:docname="Logo_Full_White_TransparentBackground.svg"
   inkscape:export-filename="Logo_Full_White_TransparentBackground.png"
   inkscape:export-xdpi="300"
   inkscape:export-ydpi="300"
   xmlns:inkscape="http://www.inkscape.org/namespaces/inkscape"
   xmlns:sodipodi="http://sodipodi.sourceforge.net/DTD/sodipodi-0.dtd"
   xmlns="http://www.w3.org/2000/svg"
   xmlns:svg="http://www.w3.org/2000/svg">
  <sodipodi:namedview
     id="namedview1"
     pagecolor="#ffffff"
     bordercolor="#666666"
     borderopacity="1.0"
     inkscape:showpageshadow="2"
     inkscape:pageopacity="0.0"
     inkscape:pagecheckerboard="true"
     inkscape:deskcolor="#d1d1d1"
     inkscape:document-units="mm"
     inkscape:zoom="0.74029882"
     inkscape:cx="843.57827"
     inkscape:cy="95.231815"
     inkscape:window-width="1680"
     inkscape:window-height="987"
     inkscape:window-x="-8"
     inkscape:window-y="-8"
     inkscape:window-maximized="1"
     inkscape:current-layer="g5-7-4" />
  <defs
     id="defs1" />
  <g
     inkscape:label="Layer 1"
     inkscape:groupmode="layer"
     id="layer1"
     transform="translate(101.07081,-84.13749)">
    <g
       id="g5-7-4"
       transform="translate(430.63677,-111.89997)"
       style="fill:#ffffff">
      <path
         style="font-size:50.8px;line-height:182.6%;font-family:Pirulen;-inkscape-font-specification:Pirulen;letter-spacing:2.64583px;word-spacing:0px;stroke-width:0.264583px"
         d="m -484.36198,248.43597 v -35.7632 h -5.8928 v 26.5684 l -35.6108,-26.5684 h -5.842 v 35.7632 h 5.8928 v -27.8384 l 38.1508,27.8384 z m 46.02904,0 v -5.2832 h -30.0228 v -10.9728 h 28.4988 v -5.2832 h -28.4988 v -8.9408 h 30.0228 v -5.2832 h -36.7792 v 35.7632 z m 97.01808,0 v -30.48 h 18.2372 v -5.2832 h -43.7388 v 5.2832 h 18.7452 v 30.48 z m 61.21827,0 v -5.2832 h -29.0068 v -30.48 h -6.8072 v 35.7632 z m 56.39224,0 -23.622,-35.7632 h -4.9276 l -23.7744,35.7632 h 7.5184 l 18.7452,-28.8036 18.4404,28.8036 z m 35.15788,0 c 8.8392,0 11.3284,-3.6576 11.3284,-7.7216 v -5.2324 c 0,-3.4544 -1.9812,-5.1308 -4.6736,-5.842 2.54,-0.508 4.2164,-2.8448 4.2164,-5.9436 v -3.302 c 0,-4.7752 -3.048,-7.7216 -10.9728,-7.7216 h -29.1084 v 35.7632 z m 4.572,-8.9916 c 0,2.8956 -1.8796,3.7084 -4.572,3.7084 h -22.4536 v -10.6172 h 22.4536 c 2.6924,0 4.572,0.8128 4.572,3.048 z m -0.4572,-14.986 c 0,1.9812 -1.0668,2.794 -4.2164,2.794 h -22.352 v -9.2964 h 22.352 c 3.1496,0 4.2164,0.8128 4.2164,2.794 z"
         id="text967-5-7-7-1-2-7-94-9-7-7-3-4-2-6"
         aria-label="Ne  tLab" />
      <path
         style="font-size:16.0956px;line-height:125%;font-family:Pirulen;-inkscape-font-specification:Pirulen;letter-spacing:0px;word-spacing:0px;stroke:#ffffff;stroke-width:0.738823"
         d="m -303.20011,264.67065 v -1.67394 h -9.12621 c -0.96573,0 -1.41641,-0.3702 -1.41641,-1.04621 v -5.89099 c 0,-0.67602 0.45068,-1.04622 1.41641,-1.04622 h 9.12621 v -1.67394 h -9.12621 c -2.57529,0 -3.55713,1.1106 -3.55713,2.73625 v 5.8588 c 0,1.62566 0.98184,2.73625 3.55713,2.73625 z m 12.76381,0 c 2.5753,0 3.55713,-1.11059 3.55713,-2.73625 v -5.8588 c 0,-1.62565 -0.98183,-2.73625 -3.55713,-2.73625 h -7.48445 c -2.5753,0 -3.55713,1.1106 -3.55713,2.73625 v 5.8588 c 0,1.62566 0.98183,2.73625 3.55713,2.73625 z m 1.41642,-2.72015 c 0,0.67601 -0.45068,1.04621 -1.41642,1.04621 h -7.48445 c -0.96574,0 -1.41641,-0.3702 -1.41641,-1.04621 v -5.89099 c 0,-0.67602 0.45067,-1.04622 1.41641,-1.04622 h 7.48445 c 0.96574,0 1.41642,0.3702 1.41642,1.04622 z m 19.15377,2.72015 v -11.3313 h -1.86709 v 8.418 l -11.28302,-8.418 h -1.85099 v 11.3313 h 1.86709 v -8.82038 l 12.08779,8.82038 z m 12.0878,0 c 2.57529,0 3.55713,-1.11059 3.55713,-2.73625 v -1.40031 c 0,-1.62566 -0.98184,-2.73626 -3.55713,-2.73626 h -6.66358 c -0.96574,0 -1.41641,-0.3702 -1.41641,-1.04621 v -0.69211 c 0,-0.67602 0.45067,-1.04622 1.41641,-1.04622 h 9.59298 v -1.67394 h -9.59298 c -2.5753,0 -3.55713,1.1106 -3.55713,2.73625 v 0.65992 c 0,1.62566 0.98183,2.73626 3.55713,2.73626 h 6.66358 c 0.96573,0 1.41641,0.37019 1.41641,1.04621 v 1.43251 c 0,0.67601 -0.45068,1.04621 -1.41641,1.04621 h -9.85051 v 1.67394 z m 16.30485,0 c 2.57529,0 3.10645,-1.11059 3.10645,-2.73625 v -8.59505 h -2.14072 v 8.61115 c 0,0.67601 -0.45068,1.04621 -1.41641,1.04621 h -7.03378 c -0.96573,0 -1.41641,-0.3702 -1.41641,-1.04621 v -8.61115 h -2.14072 v 8.59505 c 0,1.62566 0.98184,2.73625 3.55713,2.73625 z m 16.49799,0 v -1.67394 h -9.19059 v -9.65736 h -2.15681 v 11.3313 z m 5.37594,0 v -9.65736 h 5.77832 v -1.67394 h -13.85831 v 1.67394 h 5.93927 v 9.65736 z m 9.43203,0 v -11.3313 h -2.14071 v 11.3313 z m 17.17402,0 v -11.3313 h -1.86709 v 8.418 l -11.28302,-8.418 h -1.85099 v 11.3313 h 1.86709 v -8.82038 l 12.08779,8.82038 z m 11.05769,0 c 2.68796,0 4.03999,-0.80478 4.03999,-2.41434 v -3.76637 h -2.14071 v 3.76637 c 0,0.49897 -0.62773,0.7404 -1.89928,0.7404 h -5.00574 c -1.27155,0 -1.89928,-0.25753 -1.89928,-0.77259 v -6.43824 c 0,-0.51506 0.62773,-0.77259 1.89928,-0.77259 h 8.86868 v -1.67394 h -8.86868 c -2.68796,0 -4.03999,0.82088 -4.03999,2.44653 v 6.43824 c 0,1.62566 1.35203,2.44653 4.03999,2.44653 z"
         id="text967-5-7-7-1-2-7-9-3-1-8-71-6-0-2"
         aria-label="Consulting" />
      <g
         id="g2-5-2"
         transform="matrix(0.91414743,0,0,0.91414743,-12.380668,-23.497569)"
         style="fill:#ffffff">
        <path
           id="path16-2-3-5"
           style="fill:#ffffff;fill-rule:evenodd;stroke:none;stroke-width:0.274105;stroke-linecap:round"
           d="m -420.52367,291.12711 c 13.72104,12.10308 24.93179,18.47435 27.6325,15.70406 2.70071,-2.77029 -3.74118,-14.03328 -15.87812,-27.76126 -3.69622,4.12156 -7.66693,8.19457 -11.75438,12.0572 z m 23.93768,-45.83032 c 2.77029,2.70072 -3.60098,13.91146 -15.70406,27.6325 -3.86263,-4.08745 -7.93564,-8.05815 -12.05721,-11.75437 13.72799,-12.13695 24.99098,-18.57884 27.76127,-15.87813 z m -61.53437,61.53437 c -2.70072,-2.77029 3.74117,-14.03327 15.87811,-27.76125 3.69622,4.12156 7.66693,8.19457 11.75438,12.0572 -13.72103,12.10308 -24.93179,18.47435 -27.63249,15.70405 z m 3.66322,-61.50281 c -3.73488,3.82817 9.91976,23.28315 28.95137,41.24957 4.23833,-4.00111 8.38239,-8.24866 12.18147,-12.48571 -17.99802,-19.02582 -37.39796,-32.59202 -41.13284,-28.76386 z m -7.67639,-4.04472 c -4.20183,4.20182 3.57431,19.30321 18.8607,36.62777 -15.28631,17.32452 -23.06239,32.42583 -18.86058,36.62763 4.20181,4.20182 19.30313,-3.57427 36.62764,-18.86059 17.32451,15.28632 32.42584,23.06242 36.62765,18.8606 4.20181,-4.20181 -3.57427,-19.30312 -18.86059,-36.62764 15.28639,-17.32456 23.06254,-32.42595 18.86071,-36.62777 -4.20182,-4.20184 -19.30321,3.57431 -36.62777,18.86071 -17.32456,-15.2864 -32.42594,-23.06254 -36.62776,-18.86071 z"
           sodipodi:nodetypes="csccsccssccssccsscscscscs" />
        <circle
           cy="246.89479"
           cx="-407.47156"
           id="path1147-4-1-5-6-6-1-7-3-4-9-1-1-8-3-8-1-5-0-6-3-2-8-7-8-74-5-3-2-7"
           style="fill:#ffffff;fill-opacity:1;fill-rule:evenodd;stroke:none;stroke-width:3.74154;stroke-linecap:round;stroke-linejoin:miter;stroke-miterlimit:4;stroke-dasharray:none;stroke-dashoffset:0;stroke-opacity:1"
           r="6" />
        <circle
           cy="282.80331"
           cx="-434.04721"
           id="path1147-4-1-5-6-6-1-7-3-4-9-1-1-8-3-8-1-5-0-6-3-2-8-7-8-7-0-4-0-6-8"
           style="fill:#ffffff;fill-opacity:1;fill-rule:evenodd;stroke:none;stroke-width:3.74154;stroke-linecap:round;stroke-linejoin:miter;stroke-miterlimit:4;stroke-dasharray:none;stroke-dashoffset:0;stroke-opacity:1"
           r="6" />
      </g>
    </g>
  </g>
</svg>
