<?xml version="1.0" encoding="UTF-8" standalone="no"?>
<!-- Created with Inkscape (http://www.inkscape.org/) -->

<svg
   width="354.4895mm"
   height="69.033806mm"
   viewBox="0 0 354.4895 69.033806"
   version="1.1"
   id="svg1"
   inkscape:version="1.3.2 (091e20e, 2023-11-25, custom)"
   sodipodi:docname="Logo_Full_WhiteText_TransparentBackground.svg"
   inkscape:export-filename="Logo_Full_WhiteText_TransparentBackground.png"
   inkscape:export-xdpi="90"
   inkscape:export-ydpi="90"
   xmlns:inkscape="http://www.inkscape.org/namespaces/inkscape"
   xmlns:sodipodi="http://sodipodi.sourceforge.net/DTD/sodipodi-0.dtd"
   xmlns="http://www.w3.org/2000/svg"
   xmlns:svg="http://www.w3.org/2000/svg">
  <sodipodi:namedview
     id="namedview1"
     pagecolor="#ffffff"
     bordercolor="#666666"
     borderopacity="1.0"
     inkscape:showpageshadow="2"
     inkscape:pageopacity="0.0"
     inkscape:pagecheckerboard="true"
     inkscape:deskcolor="#d1d1d1"
     inkscape:document-units="mm"
     inkscape:zoom="0.74029882"
     inkscape:cx="664.59649"
     inkscape:cy="315.41317"
     inkscape:window-width="1617"
     inkscape:window-height="1027"
     inkscape:window-x="1672"
     inkscape:window-y="-8"
     inkscape:window-maximized="1"
     inkscape:current-layer="layer1" />
  <defs
     id="defs1" />
  <g
     inkscape:label="Layer 1"
     inkscape:groupmode="layer"
     id="layer1"
     transform="translate(101.07081,-84.13749)">
    <g
       id="g5-7-4"
       transform="translate(430.63677,-111.89997)"
       style="fill:#ffffff">
      <text
         xml:space="preserve"
         style="font-style:normal;font-variant:normal;font-weight:normal;font-stretch:normal;font-size:7.76111px;line-height:125%;font-family:'Yu Gothic UI';-inkscape-font-specification:'Yu Gothic UI';letter-spacing:0px;word-spacing:0px;fill:#ffffff;fill-opacity:1;stroke:none;stroke-width:0.264583px;stroke-linecap:butt;stroke-linejoin:miter;stroke-opacity:1"
         x="-535.00958"
         y="248.43597"
         id="text967-5-7-7-1-2-7-94-9-7-7-3-4-2-6"><tspan
           sodipodi:role="line"
           id="tspan965-7-0-9-3-7-5-2-4-6-64-5-5-5-0"
           x="-535.00958"
           y="248.43597"
           style="font-style:normal;font-variant:normal;font-weight:normal;font-stretch:normal;font-size:50.8px;line-height:182.6%;font-family:Pirulen;-inkscape-font-specification:Pirulen;letter-spacing:2.64583px;fill:#ffffff;stroke-width:0.264583px">Ne<tspan
   style="font-size:59.9722px;line-height:182.6%;letter-spacing:2.64583px;fill:#ffffff;stroke-width:0.264583px"
   id="tspan5781-6-4-22-5-4-7-4">  </tspan>tLab</tspan></text>
      <text
         xml:space="preserve"
         style="font-style:normal;font-variant:normal;font-weight:normal;font-stretch:normal;font-size:6.9432px;line-height:125%;font-family:'Yu Gothic UI';-inkscape-font-specification:'Yu Gothic UI';letter-spacing:0px;word-spacing:0px;fill:#ffffff;fill-opacity:1;stroke:#ffffff;stroke-width:0.738823;stroke-linecap:butt;stroke-linejoin:miter;stroke-miterlimit:4;stroke-dasharray:none;stroke-opacity:1"
         x="-316.84918"
         y="264.67065"
         id="text967-5-7-7-1-2-7-9-3-1-8-71-6-0-2"><tspan
           sodipodi:role="line"
           id="tspan965-7-0-9-3-7-5-5-0-4-2-54-7-0-9"
           x="-316.84918"
           y="264.67065"
           style="font-style:normal;font-variant:normal;font-weight:normal;font-stretch:normal;font-size:16.0956px;font-family:Pirulen;-inkscape-font-specification:Pirulen;fill:#ffffff;stroke:#ffffff;stroke-width:0.738823;stroke-miterlimit:4;stroke-dasharray:none">Consulting</tspan></text>
      <g
         id="g2-5-2"
         transform="matrix(0.91414743,0,0,0.91414743,-12.380668,-23.497569)"
         style="fill:#ffffff">
        <path
           id="path16-2-3-5"
           style="fill:#ffffff;fill-rule:evenodd;stroke:none;stroke-width:0.274105;stroke-linecap:round"
           d="m -420.52367,291.12711 c 13.72104,12.10308 24.93179,18.47435 27.6325,15.70406 2.70071,-2.77029 -3.74118,-14.03328 -15.87812,-27.76126 -3.69622,4.12156 -7.66693,8.19457 -11.75438,12.0572 z m 23.93768,-45.83032 c 2.77029,2.70072 -3.60098,13.91146 -15.70406,27.6325 -3.86263,-4.08745 -7.93564,-8.05815 -12.05721,-11.75437 13.72799,-12.13695 24.99098,-18.57884 27.76127,-15.87813 z m -61.53437,61.53437 c -2.70072,-2.77029 3.74117,-14.03327 15.87811,-27.76125 3.69622,4.12156 7.66693,8.19457 11.75438,12.0572 -13.72103,12.10308 -24.93179,18.47435 -27.63249,15.70405 z m 3.66322,-61.50281 c -3.73488,3.82817 9.91976,23.28315 28.95137,41.24957 4.23833,-4.00111 8.38239,-8.24866 12.18147,-12.48571 -17.99802,-19.02582 -37.39796,-32.59202 -41.13284,-28.76386 z m -7.67639,-4.04472 c -4.20183,4.20182 3.57431,19.30321 18.8607,36.62777 -15.28631,17.32452 -23.06239,32.42583 -18.86058,36.62763 4.20181,4.20182 19.30313,-3.57427 36.62764,-18.86059 17.32451,15.28632 32.42584,23.06242 36.62765,18.8606 4.20181,-4.20181 -3.57427,-19.30312 -18.86059,-36.62764 15.28639,-17.32456 23.06254,-32.42595 18.86071,-36.62777 -4.20182,-4.20184 -19.30321,3.57431 -36.62777,18.86071 -17.32456,-15.2864 -32.42594,-23.06254 -36.62776,-18.86071 z"
           sodipodi:nodetypes="csccsccssccssccsscscscscs" />
        <circle
           cy="246.89479"
           cx="-407.47156"
           id="path1147-4-1-5-6-6-1-7-3-4-9-1-1-8-3-8-1-5-0-6-3-2-8-7-8-74-5-3-2-7"
           style="fill:#ffffff;fill-opacity:1;fill-rule:evenodd;stroke:none;stroke-width:3.74154;stroke-linecap:round;stroke-linejoin:miter;stroke-miterlimit:4;stroke-dasharray:none;stroke-dashoffset:0;stroke-opacity:1"
           r="6" />
        <circle
           cy="282.80331"
           cx="-434.04721"
           id="path1147-4-1-5-6-6-1-7-3-4-9-1-1-8-3-8-1-5-0-6-3-2-8-7-8-7-0-4-0-6-8"
           style="fill:#ffffff;fill-opacity:1;fill-rule:evenodd;stroke:none;stroke-width:3.74154;stroke-linecap:round;stroke-linejoin:miter;stroke-miterlimit:4;stroke-dasharray:none;stroke-dashoffset:0;stroke-opacity:1"
           r="6" />
      </g>
    </g>
  </g>
</svg>
